<mxfile host="app.diagrams.net" modified="2022-11-16T15:54:41.535Z" agent="5.0 (Windows NT 10.0; Win64; x64) AppleWebKit/537.36 (KHTML, like Gecko) Chrome/107.0.0.0 Safari/537.36" etag="gnGFnryv1qVREYMLhb4E" version="20.5.3" type="github">
  <diagram id="ea4igI_uoOzWITEpafUu" name="Page-1">
    <mxGraphModel dx="2703" dy="1430" grid="1" gridSize="10" guides="1" tooltips="1" connect="1" arrows="1" fold="1" page="1" pageScale="1" pageWidth="850" pageHeight="1100" math="0" shadow="0">
      <root>
        <mxCell id="0" />
        <mxCell id="1" parent="0" />
        <mxCell id="lRAX0tU2sfoxf9cCEie5-40" value="" style="rounded=0;whiteSpace=wrap;html=1;dashed=1;strokeColor=#97D077;strokeWidth=2;" vertex="1" parent="1">
          <mxGeometry x="-830" y="510" width="470" height="250" as="geometry" />
        </mxCell>
        <UserObject label="&lt;div style=&quot;display: flex; justify-content: center; text-align: center; align-items: baseline; font-size: 0; line-height: 1.25;margin-top: -2px;&quot;&gt;&lt;span&gt;&lt;span style=&quot;font-size:15px;color:#ffffff;font-weight: bold;&quot;&gt;Personal Reserving Customer&lt;/span&gt;&lt;span style=&quot;font-size:16.7px;color:#ffffff;&quot;&gt;&lt;br&gt;&lt;/span&gt;&lt;span style=&quot;font-size:8.3px;color:#ffffff;&quot;&gt;[Person]&lt;br&gt;&lt;br&gt;&lt;/span&gt;&lt;span style=&quot;font-size:10px;color:#ffffff;&quot;&gt;A customer who wants to reverse a parking spot&lt;/span&gt;&lt;/span&gt;&lt;/div&gt;" lucidchartObjectId="7wz7zbzjAWsJ" id="lRAX0tU2sfoxf9cCEie5-2">
          <mxCell style="html=1;overflow=block;blockSpacing=1;whiteSpace=wrap;fontSize=13;spacing=3.8;strokeOpacity=0;fillOpacity=100;rounded=1;absoluteArcSize=1;arcSize=9;fillColor=#004faf;strokeWidth=2.3;" vertex="1" parent="1">
            <mxGeometry x="-1000" y="110" width="180" height="100" as="geometry" />
          </mxCell>
        </UserObject>
        <UserObject label="&lt;div style=&quot;display: flex; justify-content: center; text-align: center; align-items: baseline; font-size: 0; line-height: 1.25;margin-top: -2px;&quot;&gt;&lt;span&gt;&lt;span style=&quot;font-size:15px;color:#ffffff;font-weight: bold;&quot;&gt;Personal Sharing Customer&lt;/span&gt;&lt;span style=&quot;font-size:16.7px;color:#ffffff;&quot;&gt;&lt;br&gt;&lt;/span&gt;&lt;span style=&quot;font-size:8.3px;color:#ffffff;&quot;&gt;[Person]&lt;br&gt;&lt;br&gt;&lt;/span&gt;&lt;span style=&quot;font-size:10px;color:#ffffff;&quot;&gt;A customer who wants to share his/her parking spot&lt;/span&gt;&lt;/span&gt;&lt;/div&gt;" lucidchartObjectId="7wz7zbzjAWsJ" id="lRAX0tU2sfoxf9cCEie5-3">
          <mxCell style="html=1;overflow=block;blockSpacing=1;whiteSpace=wrap;fontSize=13;spacing=3.8;strokeOpacity=0;fillOpacity=100;rounded=1;absoluteArcSize=1;arcSize=9;fillColor=#004faf;strokeWidth=2.3;" vertex="1" parent="1">
            <mxGeometry x="-590" y="100" width="180" height="100" as="geometry" />
          </mxCell>
        </UserObject>
        <UserObject label="&lt;div style=&quot;display: flex; justify-content: center; text-align: center; align-items: baseline; line-height: 1.25; margin-top: -2px; font-size: 0px;&quot;&gt;&lt;span&gt;&lt;span style=&quot;font-size:15px;color:#ffffff;font-weight: bold;&quot;&gt;The Guard&lt;/span&gt;&lt;span style=&quot;font-size:16.7px;color:#ffffff;&quot;&gt;&lt;br&gt;&lt;/span&gt;&lt;span style=&quot;font-size:8.3px;color:#ffffff;&quot;&gt;[Person]&lt;br&gt;&lt;br&gt;&lt;/span&gt;&lt;span style=&quot;font-size:10px;color:#ffffff;&quot;&gt;The guard helps to check in or check out the order&lt;/span&gt;&lt;/span&gt;&lt;/div&gt;" lucidchartObjectId="7wz7zbzjAWsJ" id="lRAX0tU2sfoxf9cCEie5-4">
          <mxCell style="html=1;overflow=block;blockSpacing=1;whiteSpace=wrap;fontSize=13;spacing=3.8;strokeOpacity=0;fillOpacity=100;rounded=1;absoluteArcSize=1;arcSize=9;fillColor=#004faf;strokeWidth=2.3;" vertex="1" parent="1">
            <mxGeometry x="-350" y="100" width="180" height="100" as="geometry" />
          </mxCell>
        </UserObject>
        <UserObject label="&lt;div style=&quot;display: flex; justify-content: center; text-align: center; align-items: baseline; font-size: 0; line-height: 1.25;margin-top: -2px;&quot;&gt;&lt;span&gt;&lt;span style=&quot;font-size:15px;color:#333333;font-weight: bold;&quot;&gt;Reverse Web Application&lt;/span&gt;&lt;span style=&quot;font-size:16.7px;color:#333333;&quot;&gt;&lt;br&gt;&lt;/span&gt;&lt;span style=&quot;font-size:8.3px;color:#333333;&quot;&gt;[Container: NodeJS and Angular]&lt;br&gt;&lt;br&gt;&lt;/span&gt;&lt;span style=&quot;color: rgb(51, 51, 51); font-size: 10px; background-color: initial;&quot;&gt;Reserve spare parking spot and generate order&lt;/span&gt;&lt;/span&gt;&lt;/div&gt;" lucidchartObjectId="ESz7o~NOM6BO" id="lRAX0tU2sfoxf9cCEie5-5">
          <mxCell style="html=1;overflow=block;blockSpacing=1;whiteSpace=wrap;fontSize=13;spacing=3.8;strokeOpacity=0;fillOpacity=100;rounded=1;absoluteArcSize=1;arcSize=9;fillColor=#4d9eff;strokeWidth=2.3;" vertex="1" parent="1">
            <mxGeometry x="-860" y="310" width="210" height="100" as="geometry" />
          </mxCell>
        </UserObject>
        <UserObject label="&lt;div style=&quot;display: flex; justify-content: center; text-align: center; align-items: baseline; line-height: 1.25; margin-top: -2px; font-size: 0px;&quot;&gt;&lt;span&gt;&lt;span style=&quot;font-size:15px;color:#333333;font-weight: bold;&quot;&gt;Search Web Application&lt;/span&gt;&lt;span style=&quot;font-size:16.7px;color:#333333;&quot;&gt;&lt;br&gt;&lt;/span&gt;&lt;span style=&quot;font-size:8.3px;color:#333333;&quot;&gt;[Container: NodeJS and Angular]&lt;br&gt;&lt;br&gt;&lt;/span&gt;&lt;span style=&quot;font-size:10px;color:#333333;&quot;&gt;Search the list of spare parking spots of different business area&amp;nbsp;&lt;/span&gt;&lt;/span&gt;&lt;/div&gt;" lucidchartObjectId="ESz7o~NOM6BO" id="lRAX0tU2sfoxf9cCEie5-6">
          <mxCell style="html=1;overflow=block;blockSpacing=1;whiteSpace=wrap;fontSize=13;spacing=3.8;strokeOpacity=0;fillOpacity=100;rounded=1;absoluteArcSize=1;arcSize=9;fillColor=#4d9eff;strokeWidth=2.3;" vertex="1" parent="1">
            <mxGeometry x="-1140" y="310" width="210" height="100" as="geometry" />
          </mxCell>
        </UserObject>
        <UserObject label="&lt;div style=&quot;display: flex; justify-content: center; text-align: center; align-items: baseline; font-size: 0; line-height: 1.25;margin-top: -2px;&quot;&gt;&lt;span&gt;&lt;span style=&quot;font-size:15px;color:#333333;font-weight: bold;&quot;&gt;Order Web Application&lt;/span&gt;&lt;span style=&quot;font-size:16.7px;color:#333333;&quot;&gt;&lt;br&gt;&lt;/span&gt;&lt;span style=&quot;font-size:8.3px;color:#333333;&quot;&gt;[Container: Java and Spring MVC]&lt;br&gt;&lt;br&gt;&lt;/span&gt;&lt;span style=&quot;font-size:10px;color:#333333;&quot;&gt; Delivers the static content and the internet banking single page application&lt;/span&gt;&lt;/span&gt;&lt;/div&gt;" lucidchartObjectId="ESz7o~NOM6BO" id="lRAX0tU2sfoxf9cCEie5-7">
          <mxCell style="html=1;overflow=block;blockSpacing=1;whiteSpace=wrap;fontSize=13;spacing=3.8;strokeOpacity=0;fillOpacity=100;rounded=1;absoluteArcSize=1;arcSize=9;fillColor=#4d9eff;strokeWidth=2.3;" vertex="1" parent="1">
            <mxGeometry x="-330" y="310" width="210" height="100" as="geometry" />
          </mxCell>
        </UserObject>
        <UserObject label="&lt;div style=&quot;display: flex; justify-content: center; text-align: center; align-items: baseline; font-size: 0; line-height: 1.25;margin-top: -2px;&quot;&gt;&lt;span&gt;&lt;span style=&quot;font-size:15px;color:#333333;font-weight: bold;&quot;&gt;Share Web Application&lt;/span&gt;&lt;span style=&quot;font-size:16.7px;color:#333333;&quot;&gt;&lt;br&gt;&lt;/span&gt;&lt;span style=&quot;font-size:8.3px;color:#333333;&quot;&gt;[Container: Java and Spring MVC]&lt;br&gt;&lt;br&gt;&lt;/span&gt;&lt;span style=&quot;font-size:10px;color:#333333;&quot;&gt; Delivers the static content and the internet banking single page application&lt;/span&gt;&lt;/span&gt;&lt;/div&gt;" lucidchartObjectId="ESz7o~NOM6BO" id="lRAX0tU2sfoxf9cCEie5-8">
          <mxCell style="html=1;overflow=block;blockSpacing=1;whiteSpace=wrap;fontSize=13;spacing=3.8;strokeOpacity=0;fillOpacity=100;rounded=1;absoluteArcSize=1;arcSize=9;fillColor=#4d9eff;strokeWidth=2.3;" vertex="1" parent="1">
            <mxGeometry x="-580" y="310" width="210" height="100" as="geometry" />
          </mxCell>
        </UserObject>
        <UserObject label="&lt;div style=&quot;display: flex; justify-content: center; text-align: center; align-items: baseline; font-size: 0; line-height: 1.25;margin-top: -2px;&quot;&gt;&lt;span&gt;&lt;span style=&quot;font-size:15px;color:#333333;font-weight: bold;&quot;&gt;API Application&lt;/span&gt;&lt;span style=&quot;font-size:16.7px;color:#333333;&quot;&gt;&lt;br&gt;&lt;/span&gt;&lt;span style=&quot;font-size:8.3px;color:#333333;&quot;&gt;[Container: .Net ]&lt;br&gt;&lt;br&gt;&lt;/span&gt;&lt;span style=&quot;font-size:10px;color:#333333;&quot;&gt; Provide core function&amp;nbsp; by RESTful API&lt;/span&gt;&lt;/span&gt;&lt;/div&gt;" lucidchartObjectId="nWz77IYYfrE6" id="lRAX0tU2sfoxf9cCEie5-9">
          <mxCell style="html=1;overflow=block;blockSpacing=1;whiteSpace=wrap;fontSize=13;spacing=3.8;strokeOpacity=0;fillOpacity=100;rounded=1;absoluteArcSize=1;arcSize=9;fillColor=#4d9eff;strokeWidth=2.3;" vertex="1" parent="1">
            <mxGeometry x="-810" y="520" width="180" height="100" as="geometry" />
          </mxCell>
        </UserObject>
        <UserObject label="&lt;div style=&quot;display: flex; justify-content: center; text-align: center; align-items: baseline; font-size: 0; line-height: 1.25;margin-top: -2px;&quot;&gt;&lt;span&gt;&lt;span style=&quot;font-size:15px;color:#333333;font-weight: bold;&quot;&gt;Database&lt;/span&gt;&lt;span style=&quot;font-size:16.7px;color:#333333;&quot;&gt;&lt;br&gt;&lt;/span&gt;&lt;span style=&quot;font-size:8.3px;color:#333333;&quot;&gt;[Container: MySQL]&lt;br&gt;&lt;br&gt;&lt;/span&gt;&lt;span style=&quot;font-size:10px;color:#333333;&quot;&gt; Stores parking lot, parking spot information etc.&lt;/span&gt;&lt;/span&gt;&lt;/div&gt;" lucidchartObjectId="vWz77-hPuxWx" id="lRAX0tU2sfoxf9cCEie5-10">
          <mxCell style="html=1;overflow=block;blockSpacing=1;whiteSpace=wrap;shape=cylinder3;size=4;anchorPointDirection=0;boundedLbl=1;fontSize=13;spacing=3.8;strokeColor=#ffffff;strokeOpacity=100;fillOpacity=100;rounded=1;absoluteArcSize=1;arcSize=9;fillColor=#4d9eff;strokeWidth=2.3;" vertex="1" parent="1">
            <mxGeometry x="-1160" y="519" width="180" height="100" as="geometry" />
          </mxCell>
        </UserObject>
        <UserObject label="&lt;div style=&quot;display: flex; justify-content: center; text-align: center; align-items: baseline; font-size: 0; line-height: 1.25;margin-top: -2px;&quot;&gt;&lt;span&gt;&lt;span style=&quot;font-size:15px;color:#333333;font-weight: bold;&quot;&gt;Payment System&lt;/span&gt;&lt;span style=&quot;font-size:16.7px;color:#333333;&quot;&gt;&lt;br&gt;&lt;/span&gt;&lt;span style=&quot;font-size:8.3px;color:#333333;&quot;&gt;[Software System]&lt;br&gt;&lt;br&gt;&lt;/span&gt;&lt;span style=&quot;font-size:10px;color:#333333;&quot;&gt; Provide the basic payment function for all roles payment and reconcliliation&lt;/span&gt;&lt;/span&gt;&lt;/div&gt;" lucidchartObjectId="7Vz7eOaU-oRB" id="lRAX0tU2sfoxf9cCEie5-11">
          <mxCell style="html=1;overflow=block;blockSpacing=1;whiteSpace=wrap;fontSize=13;spacing=3.8;strokeOpacity=0;fillOpacity=100;rounded=1;absoluteArcSize=1;arcSize=9;fillColor=#dfe3e8;strokeWidth=2.3;" vertex="1" parent="1">
            <mxGeometry x="-550" y="519" width="180" height="100" as="geometry" />
          </mxCell>
        </UserObject>
        <UserObject label="&lt;div style=&quot;display: flex; justify-content: center; text-align: center; align-items: baseline; font-size: 0; line-height: 1.25;margin-top: -2px;&quot;&gt;&lt;span&gt;&lt;span style=&quot;font-size:15px;color:#333333;font-weight: bold;&quot;&gt;Map System&lt;/span&gt;&lt;span style=&quot;font-size:16.7px;color:#333333;&quot;&gt;&lt;br&gt;&lt;/span&gt;&lt;span style=&quot;font-size:8.3px;color:#333333;&quot;&gt;[Software System]&lt;br&gt;&lt;br&gt;&lt;/span&gt;&lt;span style=&quot;font-size:10px;color:#333333;&quot;&gt; Provide search, location and estimated distance service&lt;/span&gt;&lt;/span&gt;&lt;/div&gt;" lucidchartObjectId="7Vz7eOaU-oRB" id="lRAX0tU2sfoxf9cCEie5-12">
          <mxCell style="html=1;overflow=block;blockSpacing=1;whiteSpace=wrap;fontSize=13;spacing=3.8;strokeOpacity=0;fillOpacity=100;rounded=1;absoluteArcSize=1;arcSize=9;fillColor=#dfe3e8;strokeWidth=2.3;" vertex="1" parent="1">
            <mxGeometry x="-810" y="650" width="180" height="100" as="geometry" />
          </mxCell>
        </UserObject>
        <UserObject label="&lt;div style=&quot;display: flex; justify-content: center; text-align: center; align-items: baseline; font-size: 0; line-height: 1.25;margin-top: -2px;&quot;&gt;&lt;span&gt;&lt;span style=&quot;font-size:15px;color:#333333;font-weight: bold;&quot;&gt;Distribution System&lt;/span&gt;&lt;span style=&quot;font-size:16.7px;color:#333333;&quot;&gt;&lt;br&gt;&lt;/span&gt;&lt;span style=&quot;font-size:8.3px;color:#333333;&quot;&gt;[Software System]&lt;br&gt;&lt;br&gt;&lt;/span&gt;&lt;span style=&quot;font-size:10px;color:#333333;&quot;&gt; Provide AI technology for auto distributing space, aiming to increase the plot ratio of space&lt;/span&gt;&lt;/span&gt;&lt;/div&gt;" lucidchartObjectId="7Vz7eOaU-oRB" id="lRAX0tU2sfoxf9cCEie5-13">
          <mxCell style="html=1;overflow=block;blockSpacing=1;whiteSpace=wrap;fontSize=13;spacing=3.8;strokeOpacity=0;fillOpacity=100;rounded=1;absoluteArcSize=1;arcSize=9;fillColor=#dfe3e8;strokeWidth=2.3;" vertex="1" parent="1">
            <mxGeometry x="-550" y="649" width="180" height="100" as="geometry" />
          </mxCell>
        </UserObject>
        <UserObject label="" lucidchartObjectId="LYz7PsufM9-5" id="lRAX0tU2sfoxf9cCEie5-14">
          <mxCell style="html=1;jettySize=18;whiteSpace=wrap;overflow=block;blockSpacing=1;fontSize=13;strokeColor=#5e5e5e;strokeOpacity=100;dashed=1;fixDash=1;strokeWidth=1.5;rounded=0;startArrow=none;endArrow=block;endFill=1;entryX=0.338;entryY=-0.003;entryDx=0;entryDy=0;entryPerimeter=0;exitX=0;exitY=1;exitDx=0;exitDy=0;" edge="1" parent="1" source="lRAX0tU2sfoxf9cCEie5-2" target="lRAX0tU2sfoxf9cCEie5-6">
            <mxGeometry width="100" height="100" relative="1" as="geometry">
              <Array as="points" />
              <mxPoint x="-980" y="230" as="sourcePoint" />
              <mxPoint x="-1090" y="330" as="targetPoint" />
            </mxGeometry>
          </mxCell>
        </UserObject>
        <mxCell id="lRAX0tU2sfoxf9cCEie5-15" value="&lt;div style=&quot;display: flex; justify-content: center; text-align: center; align-items: baseline; line-height: 1.25; margin-top: -2px;&quot;&gt;&lt;span style=&quot;font-size: 10px; color: rgb(51, 51, 51); font-weight: bold;&quot;&gt;Visit 163.184.251.147/parkingspots&lt;/span&gt;&lt;/div&gt;&lt;div style=&quot;display: flex; justify-content: center; text-align: center; align-items: baseline; font-size: 0; line-height: 1.25;margin-top: -2px;&quot;&gt;&lt;span&gt;&lt;span style=&quot;font-size:10px;color:#333333;&quot;&gt;[HTTP]&lt;/span&gt;&lt;/span&gt;&lt;/div&gt;" style="text;html=1;resizable=0;labelBackgroundColor=default;align=center;verticalAlign=middle;" vertex="1" parent="lRAX0tU2sfoxf9cCEie5-14">
          <mxGeometry x="-0.3574455835723189" relative="1" as="geometry">
            <mxPoint x="-11" y="39" as="offset" />
          </mxGeometry>
        </mxCell>
        <UserObject label="" lucidchartObjectId="LYz7PsufM9-5" id="lRAX0tU2sfoxf9cCEie5-16">
          <mxCell style="html=1;jettySize=18;whiteSpace=wrap;overflow=block;blockSpacing=1;fontSize=13;strokeColor=#5e5e5e;strokeOpacity=100;dashed=1;fixDash=1;strokeWidth=1.5;rounded=0;startArrow=none;endArrow=block;endFill=1;entryX=0.565;entryY=0.011;entryDx=0;entryDy=0;entryPerimeter=0;exitX=1;exitY=1;exitDx=0;exitDy=0;" edge="1" parent="1" source="lRAX0tU2sfoxf9cCEie5-2" target="lRAX0tU2sfoxf9cCEie5-5">
            <mxGeometry width="100" height="100" relative="1" as="geometry">
              <Array as="points" />
              <mxPoint x="-800.0000000000002" y="210" as="sourcePoint" />
              <mxPoint x="-749.02" y="299.7" as="targetPoint" />
            </mxGeometry>
          </mxCell>
        </UserObject>
        <mxCell id="lRAX0tU2sfoxf9cCEie5-17" value="&lt;div style=&quot;display: flex; justify-content: center; text-align: center; align-items: baseline; line-height: 1.25; margin-top: -2px;&quot;&gt;&lt;span style=&quot;font-size: 10px; color: rgb(51, 51, 51); font-weight: bold;&quot;&gt;Visit 163.184.251.147/parkingspots/:id&amp;nbsp;&amp;nbsp;&lt;/span&gt;&lt;/div&gt;&lt;div style=&quot;display: flex; justify-content: center; text-align: center; align-items: baseline; font-size: 0; line-height: 1.25;margin-top: -2px;&quot;&gt;&lt;span&gt;&lt;span style=&quot;font-size:10px;color:#333333;&quot;&gt;[HTTP]&lt;/span&gt;&lt;/span&gt;&lt;/div&gt;" style="text;html=1;resizable=0;labelBackgroundColor=default;align=center;verticalAlign=middle;" vertex="1" parent="lRAX0tU2sfoxf9cCEie5-16">
          <mxGeometry x="-0.3574455835723189" relative="1" as="geometry">
            <mxPoint x="26" y="38" as="offset" />
          </mxGeometry>
        </mxCell>
        <UserObject label="" lucidchartObjectId="LYz7PsufM9-5" id="lRAX0tU2sfoxf9cCEie5-19">
          <mxCell style="html=1;jettySize=18;whiteSpace=wrap;overflow=block;blockSpacing=1;fontSize=13;strokeColor=#5e5e5e;strokeOpacity=100;dashed=1;fixDash=1;strokeWidth=1.5;rounded=0;startArrow=none;endArrow=block;endFill=1;entryX=0.427;entryY=0.001;entryDx=0;entryDy=0;exitX=0.525;exitY=1.001;exitDx=0;exitDy=0;exitPerimeter=0;entryPerimeter=0;" edge="1" parent="1" source="lRAX0tU2sfoxf9cCEie5-3" target="lRAX0tU2sfoxf9cCEie5-8">
            <mxGeometry width="100" height="100" relative="1" as="geometry">
              <Array as="points" />
              <mxPoint x="-470" y="220" as="sourcePoint" />
              <mxPoint x="-470" y="320" as="targetPoint" />
            </mxGeometry>
          </mxCell>
        </UserObject>
        <mxCell id="lRAX0tU2sfoxf9cCEie5-20" value="&lt;div style=&quot;display: flex; justify-content: center; text-align: center; align-items: baseline; line-height: 1.25; margin-top: -2px;&quot;&gt;&lt;span style=&quot;font-size: 10px; color: rgb(51, 51, 51); font-weight: bold;&quot;&gt;Visit 163.184.251.147/parkingspots/:id&amp;nbsp;&amp;nbsp;&lt;/span&gt;&lt;/div&gt;&lt;div style=&quot;display: flex; justify-content: center; text-align: center; align-items: baseline; font-size: 0; line-height: 1.25;margin-top: -2px;&quot;&gt;&lt;span&gt;&lt;span style=&quot;font-size:10px;color:#333333;&quot;&gt;[HTTP]&lt;/span&gt;&lt;/span&gt;&lt;/div&gt;" style="text;html=1;resizable=0;labelBackgroundColor=default;align=center;verticalAlign=middle;" vertex="1" parent="lRAX0tU2sfoxf9cCEie5-19">
          <mxGeometry x="-0.3574455835723189" relative="1" as="geometry">
            <mxPoint x="4" y="14" as="offset" />
          </mxGeometry>
        </mxCell>
        <UserObject label="" lucidchartObjectId="LYz7PsufM9-5" id="lRAX0tU2sfoxf9cCEie5-21">
          <mxCell style="html=1;jettySize=18;whiteSpace=wrap;overflow=block;blockSpacing=1;fontSize=13;strokeColor=#5e5e5e;strokeOpacity=100;dashed=1;fixDash=1;strokeWidth=1.5;rounded=0;startArrow=none;endArrow=block;endFill=1;entryX=0.5;entryY=0;entryDx=0;entryDy=0;exitX=0.588;exitY=1.029;exitDx=0;exitDy=0;exitPerimeter=0;" edge="1" parent="1" source="lRAX0tU2sfoxf9cCEie5-4">
            <mxGeometry width="100" height="100" relative="1" as="geometry">
              <Array as="points" />
              <mxPoint x="-240.48000000000044" y="240.10000000000002" as="sourcePoint" />
              <mxPoint x="-239.98" y="310" as="targetPoint" />
            </mxGeometry>
          </mxCell>
        </UserObject>
        <mxCell id="lRAX0tU2sfoxf9cCEie5-22" value="&lt;div style=&quot;display: flex; justify-content: center; text-align: center; align-items: baseline; line-height: 1.25; margin-top: -2px;&quot;&gt;&lt;span style=&quot;font-size: 10px; color: rgb(51, 51, 51); font-weight: bold;&quot;&gt;Visit 163.184.251.147/parkingLotManager&amp;nbsp;&amp;nbsp;&lt;/span&gt;&lt;/div&gt;&lt;div style=&quot;display: flex; justify-content: center; text-align: center; align-items: baseline; font-size: 0; line-height: 1.25;margin-top: -2px;&quot;&gt;&lt;span&gt;&lt;span style=&quot;font-size:10px;color:#333333;&quot;&gt;[HTTP]&lt;/span&gt;&lt;/span&gt;&lt;/div&gt;" style="text;html=1;resizable=0;labelBackgroundColor=default;align=center;verticalAlign=middle;" vertex="1" parent="lRAX0tU2sfoxf9cCEie5-21">
          <mxGeometry x="-0.3574455835723189" relative="1" as="geometry">
            <mxPoint y="39" as="offset" />
          </mxGeometry>
        </mxCell>
        <UserObject label="" lucidchartObjectId="LYz7PsufM9-5" id="lRAX0tU2sfoxf9cCEie5-27">
          <mxCell style="html=1;jettySize=18;whiteSpace=wrap;overflow=block;blockSpacing=1;fontSize=13;strokeColor=#5e5e5e;strokeOpacity=100;dashed=1;fixDash=1;strokeWidth=1.5;rounded=0;startArrow=none;endArrow=block;endFill=1;" edge="1" parent="1">
            <mxGeometry width="100" height="100" relative="1" as="geometry">
              <Array as="points" />
              <mxPoint x="-820" y="200" as="sourcePoint" />
              <mxPoint x="-330" y="310" as="targetPoint" />
            </mxGeometry>
          </mxCell>
        </UserObject>
        <mxCell id="lRAX0tU2sfoxf9cCEie5-29" value="&lt;div style=&quot;display: flex; justify-content: center; text-align: center; align-items: baseline; line-height: 1.25; margin-top: -2px;&quot;&gt;&lt;span style=&quot;font-size: 10px; color: rgb(51, 51, 51); font-weight: bold;&quot;&gt;Visit 163.184.251.147/parkingspotsOrder/:id&amp;nbsp;&amp;nbsp;&lt;/span&gt;&lt;/div&gt;&lt;div style=&quot;display: flex; justify-content: center; text-align: center; align-items: baseline; font-size: 0; line-height: 1.25;margin-top: -2px;&quot;&gt;&lt;span&gt;&lt;span style=&quot;font-size:10px;color:#333333;&quot;&gt;[HTTP]&lt;/span&gt;&lt;/span&gt;&lt;/div&gt;" style="text;html=1;resizable=0;labelBackgroundColor=default;align=center;verticalAlign=middle;" vertex="1" parent="1">
          <mxGeometry x="-680.0043501199033" y="230.00327022095013" as="geometry" />
        </mxCell>
        <UserObject label="" lucidchartObjectId="LYz7PsufM9-5" id="lRAX0tU2sfoxf9cCEie5-31">
          <mxCell style="html=1;jettySize=18;whiteSpace=wrap;overflow=block;blockSpacing=1;fontSize=13;strokeColor=#5e5e5e;strokeOpacity=100;dashed=1;fixDash=1;strokeWidth=1.5;rounded=0;startArrow=none;endArrow=block;endFill=1;exitX=0;exitY=1;exitDx=0;exitDy=0;entryX=0;entryY=0.5;entryDx=0;entryDy=0;" edge="1" parent="1" target="lRAX0tU2sfoxf9cCEie5-5">
            <mxGeometry width="100" height="100" relative="1" as="geometry">
              <Array as="points" />
              <mxPoint x="-930" y="359.51999999999987" as="sourcePoint" />
              <mxPoint x="-879.02" y="359.52" as="targetPoint" />
            </mxGeometry>
          </mxCell>
        </UserObject>
        <UserObject label="" lucidchartObjectId="LYz7PsufM9-5" id="lRAX0tU2sfoxf9cCEie5-36">
          <mxCell style="html=1;jettySize=18;whiteSpace=wrap;overflow=block;blockSpacing=1;fontSize=13;strokeColor=#5e5e5e;strokeOpacity=100;dashed=1;fixDash=1;strokeWidth=1.5;rounded=0;startArrow=none;endArrow=block;endFill=1;exitX=0.5;exitY=1;exitDx=0;exitDy=0;entryX=0.029;entryY=1.011;entryDx=0;entryDy=0;entryPerimeter=0;" edge="1" parent="1" source="lRAX0tU2sfoxf9cCEie5-5" target="lRAX0tU2sfoxf9cCEie5-7">
            <mxGeometry width="100" height="100" relative="1" as="geometry">
              <Array as="points">
                <mxPoint x="-755" y="440" />
                <mxPoint x="-620" y="440" />
                <mxPoint x="-500" y="440" />
                <mxPoint x="-370" y="440" />
                <mxPoint x="-330" y="440" />
              </Array>
              <mxPoint x="-770.0000000000002" y="449.9999999999998" as="sourcePoint" />
              <mxPoint x="-280" y="410" as="targetPoint" />
            </mxGeometry>
          </mxCell>
        </UserObject>
        <UserObject label="" lucidchartObjectId="LYz7PsufM9-5" id="lRAX0tU2sfoxf9cCEie5-41">
          <mxCell style="html=1;jettySize=18;whiteSpace=wrap;overflow=block;blockSpacing=1;fontSize=13;strokeColor=#5e5e5e;strokeOpacity=100;dashed=1;fixDash=1;strokeWidth=1.5;rounded=0;startArrow=none;endArrow=block;endFill=1;exitX=0;exitY=1;exitDx=0;exitDy=0;" edge="1" parent="1" target="lRAX0tU2sfoxf9cCEie5-9">
            <mxGeometry width="100" height="100" relative="1" as="geometry">
              <Array as="points" />
              <mxPoint x="-930" y="410" as="sourcePoint" />
              <mxPoint x="-860" y="410.48" as="targetPoint" />
            </mxGeometry>
          </mxCell>
        </UserObject>
        <UserObject label="" lucidchartObjectId="LYz7PsufM9-5" id="lRAX0tU2sfoxf9cCEie5-42">
          <mxCell style="html=1;jettySize=18;whiteSpace=wrap;overflow=block;blockSpacing=1;fontSize=13;strokeColor=#5e5e5e;strokeOpacity=100;dashed=1;fixDash=1;strokeWidth=1.5;rounded=0;startArrow=none;endArrow=block;endFill=1;exitX=0.635;exitY=1.018;exitDx=0;exitDy=0;exitPerimeter=0;" edge="1" parent="1" source="lRAX0tU2sfoxf9cCEie5-5" target="lRAX0tU2sfoxf9cCEie5-9">
            <mxGeometry width="100" height="100" relative="1" as="geometry">
              <Array as="points" />
              <mxPoint x="-780" y="410" as="sourcePoint" />
              <mxPoint x="-710" y="410.48" as="targetPoint" />
            </mxGeometry>
          </mxCell>
        </UserObject>
        <UserObject label="" lucidchartObjectId="LYz7PsufM9-5" id="lRAX0tU2sfoxf9cCEie5-43">
          <mxCell style="html=1;jettySize=18;whiteSpace=wrap;overflow=block;blockSpacing=1;fontSize=13;strokeColor=#5e5e5e;strokeOpacity=100;dashed=1;fixDash=1;strokeWidth=1.5;rounded=0;startArrow=none;endArrow=block;endFill=1;exitX=0;exitY=1;exitDx=0;exitDy=0;entryX=0.75;entryY=0;entryDx=0;entryDy=0;" edge="1" parent="1" target="lRAX0tU2sfoxf9cCEie5-9">
            <mxGeometry width="100" height="100" relative="1" as="geometry">
              <Array as="points" />
              <mxPoint x="-510" y="410" as="sourcePoint" />
              <mxPoint x="-440" y="410.48" as="targetPoint" />
            </mxGeometry>
          </mxCell>
        </UserObject>
        <UserObject label="" lucidchartObjectId="LYz7PsufM9-5" id="lRAX0tU2sfoxf9cCEie5-44">
          <mxCell style="html=1;jettySize=18;whiteSpace=wrap;overflow=block;blockSpacing=1;fontSize=13;strokeColor=#5e5e5e;strokeOpacity=100;dashed=1;fixDash=1;strokeWidth=1.5;rounded=0;startArrow=none;endArrow=block;endFill=1;exitX=0;exitY=1;exitDx=0;exitDy=0;entryX=1;entryY=0;entryDx=0;entryDy=0;" edge="1" parent="1" target="lRAX0tU2sfoxf9cCEie5-9">
            <mxGeometry width="100" height="100" relative="1" as="geometry">
              <Array as="points">
                <mxPoint x="-330" y="450" />
              </Array>
              <mxPoint x="-220" y="410" as="sourcePoint" />
              <mxPoint x="-150" y="410.48" as="targetPoint" />
            </mxGeometry>
          </mxCell>
        </UserObject>
        <mxCell id="lRAX0tU2sfoxf9cCEie5-45" value="&lt;div style=&quot;display: flex; justify-content: center; text-align: center; align-items: baseline; line-height: 1.25; margin-top: -2px;&quot;&gt;&lt;span style=&quot;font-size: 10px; color: rgb(51, 51, 51); font-weight: bold;&quot;&gt;Make HTTP calls&lt;/span&gt;&lt;/div&gt;" style="text;html=1;resizable=0;labelBackgroundColor=default;align=center;verticalAlign=middle;" vertex="1" parent="1">
          <mxGeometry x="-860.0002649929843" y="470.0007044306077" as="geometry" />
        </mxCell>
        <mxCell id="lRAX0tU2sfoxf9cCEie5-47" value="&lt;div style=&quot;display: flex; justify-content: center; text-align: center; align-items: baseline; line-height: 1.25; margin-top: -2px;&quot;&gt;&lt;span style=&quot;font-size: 10px; color: rgb(51, 51, 51); font-weight: bold;&quot;&gt;Make HTTP calls&lt;/span&gt;&lt;/div&gt;" style="text;html=1;resizable=0;labelBackgroundColor=default;align=center;verticalAlign=middle;" vertex="1" parent="1">
          <mxGeometry x="-720.0002649929843" y="470.0007044306077" as="geometry" />
        </mxCell>
        <mxCell id="lRAX0tU2sfoxf9cCEie5-48" value="&lt;div style=&quot;display: flex; justify-content: center; text-align: center; align-items: baseline; line-height: 1.25; margin-top: -2px;&quot;&gt;&lt;span style=&quot;font-size: 10px; color: rgb(51, 51, 51); font-weight: bold;&quot;&gt;Make HTTP calls&lt;/span&gt;&lt;/div&gt;" style="text;html=1;resizable=0;labelBackgroundColor=default;align=center;verticalAlign=middle;" vertex="1" parent="1">
          <mxGeometry x="-600.0002649929843" y="470.0007044306077" as="geometry" />
        </mxCell>
        <mxCell id="lRAX0tU2sfoxf9cCEie5-49" value="&lt;div style=&quot;display: flex; justify-content: center; text-align: center; align-items: baseline; line-height: 1.25; margin-top: -2px;&quot;&gt;&lt;span style=&quot;font-size: 10px; color: rgb(51, 51, 51); font-weight: bold;&quot;&gt;Make HTTP calls&lt;/span&gt;&lt;/div&gt;" style="text;html=1;resizable=0;labelBackgroundColor=default;align=center;verticalAlign=middle;" vertex="1" parent="1">
          <mxGeometry x="-400.0002649929843" y="470.0007044306077" as="geometry" />
        </mxCell>
        <UserObject label="" lucidchartObjectId="LYz7PsufM9-5" id="lRAX0tU2sfoxf9cCEie5-51">
          <mxCell style="html=1;jettySize=18;whiteSpace=wrap;overflow=block;blockSpacing=1;fontSize=13;strokeColor=#5e5e5e;strokeOpacity=100;dashed=1;fixDash=1;strokeWidth=1.5;rounded=0;startArrow=none;endArrow=block;endFill=1;exitX=0;exitY=1;exitDx=0;exitDy=0;entryX=-0.019;entryY=0.454;entryDx=0;entryDy=0;entryPerimeter=0;" edge="1" parent="1" target="lRAX0tU2sfoxf9cCEie5-11">
            <mxGeometry width="100" height="100" relative="1" as="geometry">
              <Array as="points" />
              <mxPoint x="-630" y="560" as="sourcePoint" />
              <mxPoint x="-485.625" y="670" as="targetPoint" />
            </mxGeometry>
          </mxCell>
        </UserObject>
        <mxCell id="lRAX0tU2sfoxf9cCEie5-56" value="&lt;div style=&quot;display: flex; justify-content: center; text-align: center; align-items: baseline; line-height: 1.25; margin-top: -2px;&quot;&gt;&lt;span style=&quot;font-size: 10px; color: rgb(51, 51, 51); font-weight: bold;&quot;&gt;Make RPC calls&lt;/span&gt;&lt;/div&gt;" style="text;html=1;resizable=0;labelBackgroundColor=default;align=center;verticalAlign=middle;" vertex="1" parent="1">
          <mxGeometry x="-591.0002649929843" y="554.0007044306077" as="geometry">
            <mxPoint x="-1" y="-1" as="offset" />
          </mxGeometry>
        </mxCell>
        <UserObject label="" lucidchartObjectId="LYz7PsufM9-5" id="lRAX0tU2sfoxf9cCEie5-62">
          <mxCell style="html=1;jettySize=18;whiteSpace=wrap;overflow=block;blockSpacing=1;fontSize=13;strokeColor=#5e5e5e;strokeOpacity=100;dashed=1;fixDash=1;strokeWidth=1.5;rounded=0;startArrow=none;endArrow=block;endFill=1;exitX=0;exitY=1;exitDx=0;exitDy=0;" edge="1" parent="1" target="lRAX0tU2sfoxf9cCEie5-13">
            <mxGeometry width="100" height="100" relative="1" as="geometry">
              <Array as="points" />
              <mxPoint x="-630.54" y="619.93" as="sourcePoint" />
              <mxPoint x="-530" y="619.2299999999999" as="targetPoint" />
            </mxGeometry>
          </mxCell>
        </UserObject>
        <UserObject label="" lucidchartObjectId="LYz7PsufM9-5" id="lRAX0tU2sfoxf9cCEie5-63">
          <mxCell style="html=1;jettySize=18;whiteSpace=wrap;overflow=block;blockSpacing=1;fontSize=13;strokeColor=#5e5e5e;strokeOpacity=100;dashed=1;fixDash=1;strokeWidth=1.5;rounded=0;startArrow=none;endArrow=block;endFill=1;exitX=0;exitY=1;exitDx=0;exitDy=0;entryX=0.367;entryY=-0.009;entryDx=0;entryDy=0;entryPerimeter=0;" edge="1" parent="1" target="lRAX0tU2sfoxf9cCEie5-12">
            <mxGeometry width="100" height="100" relative="1" as="geometry">
              <Array as="points" />
              <mxPoint x="-740" y="620.7" as="sourcePoint" />
              <mxPoint x="-639.46" y="620" as="targetPoint" />
            </mxGeometry>
          </mxCell>
        </UserObject>
        <mxCell id="lRAX0tU2sfoxf9cCEie5-66" value="&lt;div style=&quot;display: flex; justify-content: center; text-align: center; align-items: baseline; line-height: 1.25; margin-top: -2px;&quot;&gt;&lt;span style=&quot;font-size: 10px; color: rgb(51, 51, 51); font-weight: bold;&quot;&gt;Make RPC calls&lt;/span&gt;&lt;/div&gt;" style="text;html=1;resizable=0;labelBackgroundColor=default;align=center;verticalAlign=middle;" vertex="1" parent="1">
          <mxGeometry x="-582.0002649929843" y="640.0007044306077" as="geometry">
            <mxPoint x="-1" y="-1" as="offset" />
          </mxGeometry>
        </mxCell>
        <mxCell id="lRAX0tU2sfoxf9cCEie5-67" value="&lt;div style=&quot;display: flex; justify-content: center; text-align: center; align-items: baseline; line-height: 1.25; margin-top: -2px;&quot;&gt;&lt;span style=&quot;font-size: 10px; color: rgb(51, 51, 51); font-weight: bold;&quot;&gt;Make RPC calls&lt;/span&gt;&lt;/div&gt;" style="text;html=1;resizable=0;labelBackgroundColor=default;align=center;verticalAlign=middle;" vertex="1" parent="1">
          <mxGeometry x="-710.0002649929843" y="634.0007044306077" as="geometry">
            <mxPoint x="-1" y="-1" as="offset" />
          </mxGeometry>
        </mxCell>
        <UserObject label="" lucidchartObjectId="LYz7PsufM9-5" id="lRAX0tU2sfoxf9cCEie5-68">
          <mxCell style="html=1;jettySize=18;whiteSpace=wrap;overflow=block;blockSpacing=1;fontSize=13;strokeColor=#5e5e5e;strokeOpacity=100;dashed=1;fixDash=1;strokeWidth=1.5;rounded=0;startArrow=none;endArrow=block;endFill=1;entryX=0.998;entryY=0.47;entryDx=0;entryDy=0;entryPerimeter=0;" edge="1" parent="1" source="lRAX0tU2sfoxf9cCEie5-9" target="lRAX0tU2sfoxf9cCEie5-10">
            <mxGeometry width="100" height="100" relative="1" as="geometry">
              <Array as="points" />
              <mxPoint x="-896.5799999999999" y="566.8" as="sourcePoint" />
              <mxPoint x="-820" y="571.2" as="targetPoint" />
            </mxGeometry>
          </mxCell>
        </UserObject>
        <mxCell id="lRAX0tU2sfoxf9cCEie5-70" value="&lt;div style=&quot;display: flex; justify-content: center; text-align: center; align-items: baseline; line-height: 1.25; margin-top: -2px;&quot;&gt;&lt;span style=&quot;font-size: 10px; color: rgb(51, 51, 51); font-weight: bold;&quot;&gt;Reads from and writes to&amp;nbsp;&amp;nbsp;&lt;/span&gt;&lt;/div&gt;&lt;div style=&quot;display: flex; justify-content: center; text-align: center; align-items: baseline; font-size: 0; line-height: 1.25;margin-top: -2px;&quot;&gt;&lt;span&gt;&lt;span style=&quot;font-size:10px;color:#333333;&quot;&gt;[EF]&lt;/span&gt;&lt;/span&gt;&lt;/div&gt;" style="text;html=1;resizable=0;labelBackgroundColor=default;align=center;verticalAlign=middle;" vertex="1" parent="1">
          <mxGeometry x="-899.0006461178104" y="554.0022845198904" as="geometry" />
        </mxCell>
      </root>
    </mxGraphModel>
  </diagram>
</mxfile>
